<svg width="100" height="100" viewBox="0 -10 100 100" fill="none" xmlns="http://www.w3.org/2000/svg" style="width: 100px; height: 100px;"><script>alert(1)</script><style>
                                                                                                                                                                   .line-gear1 {animation:line-gear1 2s linear infinite; transform-origin: 49.5px 49.5px;}
                                                                                                                                                                   @keyframes line-gear1 {
                                                                                                                                                                       100%{transform: rotate(360deg);}
                                                                                                                                                                   }
                                                                                                                                                                   @media (prefers-reduced-motion: reduce) {
                                                                                                                                                                       .line-gear1 {
                                                                                                                                                                           animation: none;
                                                                                                                                                                       }
                                                                                                                                                                   }
                        </style>

<g class="line-gear1" style="animation-duration: 4s;"><path class="stroke1 fill1" d="M43 12V16.2899C43 17.0338 42.587 17.7163 41.928 18.0615L33.8025 22.3177C33.0276 22.7236 32.0788 22.5788 31.4603 21.9603L27.9142 18.4142C27.1332 17.6332 25.8668 17.6332 25.0858 18.4142L18.3541 25.1459C17.5969 25.9031 17.5704 27.1223 18.294 27.9116L21.551 31.4647C22.1205 32.0859 22.2394 32.9976 21.8483 33.7441L17.5615 41.928C17.2163 42.587 16.5338 43 15.7899 43H12C10.8954 43 10 43.8954 10 45V54.5C10 55.6046 10.8954 56.5 12 56.5H16.2639C17.0215 56.5 17.714 56.928 18.0528 57.6056L22.3253 66.1507C22.7247 66.9494 22.5462 67.916 21.8879 68.5194L18.5398 71.5885C17.7004 72.3579 17.6719 73.6719 18.477 74.477L25.1515 81.1515C25.9064 81.9064 27.1211 81.9353 27.9111 81.2172L31.0257 78.3857C31.6169 77.8482 32.4713 77.7142 33.1987 78.0449L41.8276 81.9671C42.5416 82.2916 43 83.0035 43 83.7878V87.5C43 88.6046 43.8954 89.5 45 89.5H54.5C55.6046 89.5 56.5 88.6046 56.5 87.5V83.8113C56.5 83.015 56.9723 82.2946 57.7025 81.9771L66.7512 78.043C67.5047 77.7153 68.3819 77.8819 68.9629 78.4629L71.5858 81.0858C72.3668 81.8668 73.6332 81.8668 74.4142 81.0858L81.0858 74.4142C81.8668 73.6332 81.8668 72.3668 81.0858 71.5858L78.0193 68.5193C77.4106 67.9106 77.2597 66.9806 77.6447 66.2107L81.9472 57.6056C82.286 56.928 82.9785 56.5 83.7361 56.5H87.5C88.6046 56.5 89.5 55.6046 89.5 54.5V45C89.5 43.8954 88.6046 43 87.5 43H82.9415C82.0807 43 81.3164 42.4491 81.0442 41.6325L78.3314 33.4941C78.1238 32.8715 78.235 32.1867 78.6287 31.6617L81.4592 27.8877C82.0564 27.0914 81.9772 25.9772 81.2735 25.2735L74.4142 18.4142C73.6332 17.6332 72.3668 17.6332 71.5858 18.4142L68.48 21.5199C67.8905 22.1095 66.9972 22.2715 66.2382 21.9265L57.6724 18.0329C56.9584 17.7084 56.5 16.9965 56.5 16.2122V12C56.5 10.8954 55.6046 10 54.5 10H45C43.8954 10 43 10.8954 43 12Z" fill="rgba(74,173,247,1)" stroke="rgba(0,0,0,0)" stroke-width="2px"></path><circle class="stroke2 fill2" cx="49.5" cy="49.5" r="17.5" fill="rgba(36,124,190,1)" stroke="rgba(0,0,0,0)" stroke-width="2px"><animate attributeName="cx" values="49.5;60;49.5" dur="10s" repeatCount="indefinite" /></circle></g>

<script>
(function doit() {
  document.querySelectorAll('circle')[0].style.fill = '#'+(0x1000000+(Math.random())*0xffffff).toString(16).substr(1,6);
  setTimeout( doit, 1000 );
})();
</script>

</svg>
